<svg width="127" height="38" viewBox="0 0 127 38" fill="none" xmlns="http://www.w3.org/2000/svg">
<path d="M12.0582 14.8411V18H2.97935V14.8411H12.0582ZM4.44179 0.965518V18H0.335266V0.965518H4.44179ZM10.8882 7.72783V10.7814H2.97935V7.72783H10.8882ZM12.0933 0.965518V4.13608H2.97935V0.965518H12.0933ZM17.6265 0.965518L20.411 6.62808L23.1955 0.965518H27.8753L23.1253 9.41256L28.004 18H23.2774L20.411 12.2321L17.5446 18H12.8063L17.6967 9.41256L12.935 0.965518H17.6265ZM36.4738 12.2204H32.2386V9.04988H36.4738C37.051 9.04988 37.519 8.95238 37.8778 8.75739C38.2365 8.5624 38.4978 8.29331 38.6616 7.95012C38.8332 7.59914 38.919 7.20525 38.919 6.76847C38.919 6.30049 38.8332 5.86761 38.6616 5.46983C38.4978 5.07204 38.2365 4.75226 37.8778 4.51047C37.519 4.26088 37.051 4.13608 36.4738 4.13608H33.7829V18H29.6764V0.965518H36.4738C37.8388 0.965518 39.0126 1.21511 39.9954 1.71429C40.9859 2.21347 41.7464 2.89984 42.2768 3.7734C42.8071 4.63916 43.0723 5.62972 43.0723 6.74507C43.0723 7.84483 42.8071 8.80419 42.2768 9.62315C41.7464 10.4421 40.9859 11.0817 39.9954 11.5419C39.0126 11.9943 37.8388 12.2204 36.4738 12.2204ZM56.8537 14.8411V18H48.2429V14.8411H56.8537ZM49.7053 0.965518V18H45.5988V0.965518H49.7053ZM72.5656 9.14347V9.83374C72.5656 11.1363 72.3823 12.3062 72.0157 13.3436C71.6569 14.3732 71.146 15.2545 70.483 15.9877C69.8201 16.7131 69.0362 17.2707 68.1314 17.6607C67.2267 18.0429 66.2283 18.234 65.1364 18.234C64.0366 18.234 63.0305 18.0429 62.1179 17.6607C61.2131 17.2707 60.4254 16.7131 59.7546 15.9877C59.0916 15.2545 58.5769 14.3732 58.2103 13.3436C57.8515 12.3062 57.6721 11.1363 57.6721 9.83374V9.14347C57.6721 7.84093 57.8515 6.67098 58.2103 5.63362C58.5769 4.59626 59.0877 3.7149 59.7429 2.98953C60.4059 2.25636 61.1897 1.69869 62.0945 1.3165C63.0071 0.926519 64.0132 0.731528 65.113 0.731528C66.2049 0.731528 67.2033 0.926519 68.108 1.3165C69.0206 1.69869 69.8084 2.25636 70.4713 2.98953C71.1343 3.7149 71.6491 4.59626 72.0157 5.63362C72.3823 6.67098 72.5656 7.84093 72.5656 9.14347ZM68.4005 9.83374V9.12007C68.4005 8.27771 68.3264 7.53674 68.1782 6.89717C68.0379 6.2498 67.8273 5.70772 67.5465 5.27094C67.2657 4.83415 66.9186 4.50657 66.5052 4.28818C66.0996 4.06199 65.6356 3.94889 65.113 3.94889C64.567 3.94889 64.0912 4.06199 63.6856 4.28818C63.2801 4.50657 62.9408 4.83415 62.6678 5.27094C62.3948 5.70772 62.1881 6.2498 62.0477 6.89717C61.9151 7.53674 61.8488 8.27771 61.8488 9.12007V9.83374C61.8488 10.6683 61.9151 11.4093 62.0477 12.0567C62.1881 12.6962 62.3948 13.2383 62.6678 13.6829C62.9486 14.1275 63.2918 14.4628 63.6973 14.689C64.1107 14.9152 64.5904 15.0283 65.1364 15.0283C65.659 15.0283 66.123 14.9152 66.5286 14.689C66.9342 14.4628 67.2735 14.1275 67.5465 13.6829C67.8273 13.2383 68.0379 12.6962 68.1782 12.0567C68.3264 11.4093 68.4005 10.6683 68.4005 9.83374ZM75.0101 0.965518H81.714C83.0243 0.965518 84.1631 1.16051 85.1302 1.55049C86.0974 1.94048 86.8422 2.51765 87.3648 3.28202C87.8952 4.04639 88.1604 4.99015 88.1604 6.1133C88.1604 7.08826 88.0083 7.90333 87.7041 8.5585C87.3999 9.21367 86.9748 9.75575 86.4289 10.1847C85.8907 10.6059 85.2628 10.953 84.5452 11.226L83.1998 11.9865H77.5723L77.5489 8.81589H81.714C82.2365 8.81589 82.6694 8.72229 83.0126 8.5351C83.3558 8.34791 83.6132 8.08272 83.7848 7.73953C83.9642 7.38855 84.0539 6.97126 84.0539 6.48769C84.0539 5.99631 83.9642 5.57512 83.7848 5.22414C83.6054 4.87315 83.3402 4.60406 82.9892 4.41687C82.646 4.22968 82.2209 4.13608 81.714 4.13608H79.1167V18H75.0101V0.965518ZM84.3346 18L80.5674 10.4655L84.9196 10.4421L88.7337 17.8245V18H84.3346ZM102.679 14.8411V18H93.6V14.8411H102.679ZM95.0625 0.965518V18H90.956V0.965518H95.0625ZM101.509 7.72783V10.7814H93.6V7.72783H101.509ZM102.714 0.965518V4.13608H93.6V0.965518H102.714ZM4.69918 19.9655V37H0.604355V19.9655H4.69918ZM22.1308 19.9655V37H18.036L12.0108 26.4002V37H7.90423V19.9655H12.0108L18.036 30.5653V19.9655H22.1308ZM30.5773 37H26.7983L26.8217 33.8411H30.5773C31.3572 33.8411 32.0163 33.6539 32.5545 33.2796C33.1005 32.9052 33.5138 32.3475 33.7946 31.6065C34.0832 30.8578 34.2275 29.9374 34.2275 28.8454V28.1084C34.2275 27.2894 34.1456 26.5718 33.9818 25.9557C33.8258 25.3317 33.5918 24.813 33.2798 24.3996C32.9679 23.9784 32.5779 23.6626 32.1099 23.452C31.6497 23.2414 31.1193 23.1361 30.5188 23.1361H26.7281V19.9655H30.5188C31.6731 19.9655 32.73 20.1644 33.6893 20.5622C34.6565 20.9522 35.4911 21.5138 36.193 22.2469C36.9028 22.9723 37.4488 23.8342 37.831 24.8325C38.2209 25.8231 38.4159 26.9228 38.4159 28.1318V28.8454C38.4159 30.0466 38.2209 31.1463 37.831 32.1447C37.4488 33.1431 36.9067 34.0049 36.2047 34.7303C35.5028 35.4557 34.6721 36.0172 33.7127 36.415C32.7612 36.805 31.716 37 30.5773 37ZM29.1499 19.9655V37H25.0434V19.9655H29.1499ZM55.286 28.1435V28.8337C55.286 30.1363 55.1027 31.3062 54.7361 32.3436C54.3773 33.3732 53.8665 34.2545 53.2035 34.9877C52.5405 35.7131 51.7567 36.2707 50.8519 36.6607C49.9471 37.0429 48.9488 37.234 47.8568 37.234C46.7571 37.234 45.7509 37.0429 44.8383 36.6607C43.9336 36.2707 43.1458 35.7131 42.475 34.9877C41.8121 34.2545 41.2973 33.3732 40.9307 32.3436C40.5719 31.3062 40.3925 30.1363 40.3925 28.8337V28.1435C40.3925 26.8409 40.5719 25.671 40.9307 24.6336C41.2973 23.5963 41.8082 22.7149 42.4633 21.9895C43.1263 21.2564 43.9102 20.6987 44.8149 20.3165C45.7275 19.9265 46.7337 19.7315 47.8334 19.7315C48.9254 19.7315 49.9237 19.9265 50.8285 20.3165C51.7411 20.6987 52.5288 21.2564 53.1918 21.9895C53.8548 22.7149 54.3695 23.5963 54.7361 24.6336C55.1027 25.671 55.286 26.8409 55.286 28.1435ZM51.121 28.8337V28.1201C51.121 27.2777 51.0469 26.5367 50.8987 25.8972C50.7583 25.2498 50.5477 24.7077 50.2669 24.2709C49.9861 23.8342 49.639 23.5066 49.2257 23.2882C48.8201 23.062 48.356 22.9489 47.8334 22.9489C47.2874 22.9489 46.8117 23.062 46.4061 23.2882C46.0005 23.5066 45.6612 23.8342 45.3882 24.2709C45.1152 24.7077 44.9085 25.2498 44.7681 25.8972C44.6356 26.5367 44.5693 27.2777 44.5693 28.1201V28.8337C44.5693 29.6683 44.6356 30.4093 44.7681 31.0567C44.9085 31.6962 45.1152 32.2383 45.3882 32.6829C45.669 33.1275 46.0122 33.4628 46.4178 33.689C46.8312 33.9152 47.3108 34.0283 47.8568 34.0283C48.3794 34.0283 48.8435 33.9152 49.2491 33.689C49.6546 33.4628 49.9939 33.1275 50.2669 32.6829C50.5477 32.2383 50.7583 31.6962 50.8987 31.0567C51.0469 30.4093 51.121 29.6683 51.121 28.8337ZM71.9572 19.9655V37H67.8624L61.8371 26.4002V37H57.7306V19.9655H61.8371L67.8624 30.5653V19.9655H71.9572ZM86.5926 33.8411V37H77.5138V33.8411H86.5926ZM78.9763 19.9655V37H74.8697V19.9655H78.9763ZM85.4227 26.7278V29.7814H77.5138V26.7278H85.4227ZM86.6277 19.9655V23.1361H77.5138V19.9655H86.6277ZM97.3673 32.4723C97.3673 32.2071 97.3283 31.9692 97.2503 31.7586C97.1723 31.5402 97.028 31.3374 96.8174 31.1502C96.6068 30.9631 96.3026 30.7759 95.9048 30.5887C95.5149 30.3937 95.0001 30.1909 94.3605 29.9803C93.6117 29.7307 92.8903 29.4499 92.1961 29.1379C91.5019 28.8181 90.8819 28.4477 90.3359 28.0265C89.7899 27.5975 89.357 27.0983 89.0372 26.5289C88.7174 25.9518 88.5576 25.281 88.5576 24.5166C88.5576 23.7835 88.7213 23.1244 89.0489 22.5394C89.3765 21.9466 89.8328 21.4436 90.4178 21.0302C91.0105 20.609 91.7047 20.2892 92.5003 20.0708C93.2959 19.8446 94.1655 19.7315 95.1093 19.7315C96.3572 19.7315 97.457 19.9499 98.4085 20.3867C99.3679 20.8157 100.117 21.428 100.655 22.2235C101.201 23.0113 101.474 23.9434 101.474 25.0197H97.3907C97.3907 24.5907 97.301 24.2124 97.1216 23.8849C96.95 23.5573 96.6887 23.2999 96.3377 23.1127C95.9867 22.9255 95.5461 22.8319 95.0157 22.8319C94.5009 22.8319 94.068 22.9099 93.717 23.0659C93.3661 23.2219 93.1009 23.4325 92.9215 23.6977C92.7421 23.955 92.6524 24.2397 92.6524 24.5517C92.6524 24.8091 92.7226 25.0431 92.863 25.2537C93.0112 25.4565 93.2179 25.6476 93.483 25.827C93.756 26.0064 94.0836 26.178 94.4658 26.3417C94.8558 26.5055 95.2926 26.6654 95.7761 26.8214C96.6809 27.11 97.4843 27.4337 98.1862 27.7925C98.896 28.1435 99.4927 28.5452 99.9763 28.9975C100.468 29.4421 100.838 29.9491 101.088 30.5185C101.345 31.0878 101.474 31.7313 101.474 32.4489C101.474 33.2133 101.326 33.8918 101.029 34.4846C100.733 35.0774 100.308 35.5805 99.754 35.9938C99.2002 36.3994 98.5372 36.7075 97.7651 36.9181C96.9929 37.1287 96.131 37.234 95.1795 37.234C94.3059 37.234 93.444 37.1248 92.5939 36.9064C91.7515 36.6802 90.9872 36.337 90.3008 35.8768C89.6144 35.4089 89.0645 34.8122 88.6511 34.0868C88.2456 33.3537 88.0428 32.484 88.0428 31.4778H92.161C92.161 31.977 92.2273 32.3982 92.3599 32.7414C92.4925 33.0846 92.6875 33.3615 92.9449 33.572C93.2023 33.7748 93.5181 33.923 93.8925 34.0166C94.2669 34.1024 94.6959 34.1453 95.1795 34.1453C95.7021 34.1453 96.1232 34.0712 96.443 33.923C96.7628 33.767 96.9968 33.5642 97.145 33.3147C97.2932 33.0573 97.3673 32.7765 97.3673 32.4723ZM108.271 19.9655V37H104.176V19.9655H108.271ZM118.905 23.5456L114.752 37H110.341L116.6 19.9655H119.396L118.905 23.5456ZM122.344 37L118.179 23.5456L117.641 19.9655H120.473L126.767 37H122.344ZM122.181 30.6472V33.8177H113.441V30.6472H122.181Z" fill="white"/>
</svg>
